<?xml version="1.0" encoding="UTF-8"?>
<svg width="100" height="100" viewBox="0 0 100 100" xmlns="http://www.w3.org/2000/svg">
  <!-- Background Circle -->
  <circle cx="50" cy="50" r="48" fill="#0d6efd" />
  <circle cx="50" cy="50" r="44" fill="white" />
  
  <!-- Document Icon -->
  <g transform="translate(25, 20)">
    <!-- Base Document -->
    <path d="M10,0 L40,0 L50,10 L50,70 L0,70 L0,0 L10,0" fill="#0d6efd" />
    <!-- Folded Corner -->
    <path d="M40,0 L50,10 L40,10 L40,0" fill="#0b5ed7" />
    
    <!-- Text Lines -->
    <rect x="10" y="20" width="30" height="3" rx="1.5" fill="white" />
    <rect x="10" y="30" width="30" height="3" rx="1.5" fill="white" />
    <rect x="10" y="40" width="30" height="3" rx="1.5" fill="white" />
    <rect x="10" y="50" width="20" height="3" rx="1.5" fill="white" />
  </g>
  
  <!-- DNA Helix (Represents AI/Medical) -->
  <g transform="translate(50, 50)">
    <!-- DNA Strand 1 -->
    <path d="M-15,-15 Q -10,-5 -15,5 Q -20,15 -15,25" stroke="#0d6efd" stroke-width="3" fill="none" />
    <!-- DNA Strand 2 -->
    <path d="M15,-15 Q 10,-5 15,5 Q 20,15 15,25" stroke="#0d6efd" stroke-width="3" fill="none" />
    <!-- Connecting Lines -->
    <line x1="-15" y1="-15" x2="15" y2="-15" stroke="#0d6efd" stroke-width="2" />
    <line x1="-15" y1="5" x2="15" y2="5" stroke="#0d6efd" stroke-width="2" />
    <line x1="-15" y1="25" x2="15" y2="25" stroke="#0d6efd" stroke-width="2" />
  </g>
  
  <!-- Subtle Gear (Represents Engine) -->
  <g transform="translate(50, 50)">
    <circle cx="0" cy="0" r="5" fill="#0d6efd" opacity="0.7" />
    <circle cx="0" cy="0" r="3" fill="white" />
  </g>
</svg>